File Name

Death Race 2000 1975 BRRip H264 LKRG-Wrath.mp4

File Size
Format : MPEG-4
Format profile : Base Media
Codec ID : isom
File size : 1.18 GiB
Duration : 1h 19mn
Overall bit rate : 2 129 Kbps

Video
ID : 1
Format : AVC
Format/Info : Advanced Video Codec
Format profile : High@L4.1
Format settings, CABAC : Yes
Format settings, ReFrames : 3 frames
Codec ID : avc1
Codec ID/Info : Advanced Video Coding
Duration : 1h 19mn
Bit rate mode : Variable
Bit rate : 1 998 Kbps
Maximum bit rate : 7 248 Kbps
Width : 1 280 pixels
Height : 720 pixels
Display aspect ratio : 16:9
Frame rate mode : Constant
Frame rate : 23.976 fps
Resolution : 24 bits
Colorimetry : 4:2:0
Scan type : Progressive
Bits/(Pixel*Frame) : 0.090
Stream size : 1.11 GiB (94%)

Audio 
ID : 2
Format : AAC
Format/Info : Advanced Audio Codec
Format version : Version 4
Format profile : LC
Format settings, SBR : No
Codec ID : 40
Duration : 1h 19mn
Bit rate mode : Variable
Bit rate : 128 Kbps
Maximum bit rate : 132 Kbps
Channel(s) : 2 channels
Channel positions : L R
Sampling rate : 48.0 KHz
Resolution : 16 bits
Stream size : 72.9 MiB (6%)

English SRT : N/A

Language : English

 
http://www.imdb.com/title/tt0072856/

Release Date: 27 April 1975 (USA) 

Genre: Action | Sci-Fi | Sport 

Plot: n the near future the ultimate sporting event is the deathrace. Contestants get score points for running people down as they speed across the country. The sport has crazed fans who sacrifice themselves to the drivers. An overt agency is trying to bring an end to the immoral deathrace and has infiltrated one of their followers in to the race as a navigator. In the end of the race the lives of the competitors, the President and the deathrace itself are in peril.

Cast: 
David Carradine ... Frankenstein
Simone Griffeth ... Annie Smith
Sylvester Stallone ... Machine Gun Joe Viterbo
Mary Woronov ... Calamity Jane
Roberta Collins ... Matilda the Hun
Martin Kove ... Nero the Hero
Louisa Moritz ... Myra
Don Steele ... Junior Bruce (as The Real Don Steele)
Joyce Jameson ... Grace Pander
Carle Bensen ... Harold
Sandy McCallum ... Mr. President
Paul Laurence ... Special Agent
Harriet Medin ... Thomasina Paine
Vince Trankina ... Lt. Fury
Bill Morey ... Deacon